PathFileType	4	(X/Y/Z)	/Users/mathieubourgeois/Desktop/Analyse/Traitement/Sujet_02/Data/Transformed_Sujet_02_velo_80.trc
DataRate	CameraRate	NumFrames	NumMarkers	Units	OrigDataRate	OrigDataStartFrame	OrigNumFrames
120.000000	120.000000	5	36	mm	120.000000	1650	1886
Frame#	Time	RFHD			RANE			STRN			LANI			LKNE			T10			RHUM			RWRB			C7			LFWT			LTOE			RTOE			LWRA			LBWT			RBWT			RFWT			LKNI			RKNI			RKNE			LANE			RANI			LHEE			RHEE			LHUM			LRAD			RRAD			RWRA			LWRB			LFHD			LBHD			RBHD			RSHO			LSHO			CLAV			LCAR			RCAR			
		X1	Y1	Z1	X2	Y2	Z2	X3	Y3	Z3	X4	Y4	Z4	X5	Y5	Z5	X6	Y6	Z6	X7	Y7	Z7	X8	Y8	Z8	X9	Y9	Z9	X10	Y10	Z10	X11	Y11	Z11	X12	Y12	Z12	X13	Y13	Z13	X14	Y14	Z14	X15	Y15	Z15	X16	Y16	Z16	X17	Y17	Z17	X18	Y18	Z18	X19	Y19	Z19	X20	Y20	Z20	X21	Y21	Z21	X22	Y22	Z22	X23	Y23	Z23	X24	Y24	Z24	X25	Y25	Z25	X26	Y26	Z26	X27	Y27	Z27	X28	Y28	Z28	X29	Y29	Z29	X30	Y30	Z30	X31	Y31	Z31	X32	Y32	Z32	X33	Y33	Z33	X34	Y34	Z34	X35	Y35	Z35	X36	Y36	Z36	

1651	13.75	48.2996482849121	1488.850341796875	130.8251495361327	-180.5693817138672	285.3927001953125	178.0963134765624	-220.8026885986328	1277.336669921875	24.77660942077626	-301.4983520507812	598.8323974609375	-68.30843353271493	-61.4795799255371	936.73974609375	-130.2566833496094	-372.5615539550781	1517.091430664062	24.18152236938463	-48.82675933837893	1192.156860351562	225.7396545410155	177.3037719726562	1023.354125976562	169.9439544677734	-133.8922882080078	1580.163940429688	13.19844150543202	-398.1136474609375	1216.440795898438	-92.21752166748058	-152.5418090820312	464.3487243652344	-140.748275756836	37.44178009033201	231.9598236083984	151.6403045654297	218.384521484375	1046.775146484375	-160.0125885009766	-590.7938842773438	1201.654296875	-45.1043853759767	-592.849853515625	1207.958984375	77.1051864624022	-417.8909301757812	1225.083740234375	174.0942993164061	-24.27066993713379	900.6271362304688	-25.02069473266608	-145.4279632568359	721.4407348632812	96.04336547851557	-197.542724609375	753.1763916015625	198.4566345214843	-332.5396423339844	604.5654907226562	-155.7232208251954	-157.7012939453125	305.1808776855469	91.47466278076169	-407.0683898925781	598.7092895507812	-110.1455078125001	-249.1559295654297	251.6309356689453	125.951187133789	-27.6621685028076	1205.171020507812	-177.7932739257813	29.51314926147463	1245.869750976562	-200.9524078369141	6.621632099151579	1240.567138671875	262.4904479980468	209.2169494628906	1055.866821289062	224.071548461914	179.8914642333984	1020.994079589844	-100.5863418579102	62.55917739868164	1438.944702148438	-19.33730316162118	-15.78341484069824	1565.772583007812	-55.28600692749033	-13.96708488464357	1600.962036132812	100.0397644042968	-123.7106628417969	1522.448974609375	164.8827056884764	-120.8465957641601	1508.019897460938	-117.2529754638673	-112.9963836669922	1420.889282226562	14.42446994781484	291.1111145019531	1039.509643554688	-73.60394287109376	295.0484924316406	1020.032287597656	146.3855590820312	
1652	13.75833333333333	48.66901397705077	1489.064575195312	130.0142974853515	-189.4326934814453	279.4618225097656	178.0170288085937	-220.6088562011719	1277.368530273438	24.47968482971181	-295.7070007324219	605.989501953125	-66.50760650634774	-57.0481491088867	945.9645385742188	-129.8308105468751	-372.4412841796875	1516.98095703125	23.84157180786119	-48.83433532714847	1192.287475585938	225.5548706054687	177.2466125488281	1023.383178710938	169.9162292480468	-133.7416076660156	1580.158935546875	12.44463253021229	-397.384521484375	1216.848022460938	-91.55012512207043	-141.9797058105468	474.6368103027344	-139.2851257324219	27.54936218261717	221.1032867431641	151.517578125	218.2721710205078	1046.725463867188	-160.1103820800782	-590.0414428710938	1201.721313476562	-45.43227005004897	-592.472412109375	1207.837646484375	76.7956390380858	-417.82080078125	1224.718994140625	174.542510986328	-19.55875968933105	910.5284423828125	-24.27019119262701	-152.7488861083984	715.1621704101562	95.91075134277338	-204.1322326660157	747.4010009765625	198.431167602539	-324.6810302734375	610.8865356445312	-155.4348297119141	-166.3673553466797	298.9800415039062	91.40724182128903	-399.2857360839844	603.2720336914062	-109.9456253051759	-258.4908447265625	247.2868041992188	125.5471420288086	-27.98876762390135	1204.735229492188	-178.1849212646485	29.11888504028323	1245.425048828125	-201.5458374023438	6.630495548248259	1240.696166992188	262.2536926269531	209.1326904296875	1055.894775390625	224.0602264404297	179.6022796630859	1021.255737304688	-100.8354568481446	62.66011810302734	1438.95849609375	-20.12868690490731	-15.76545810699462	1565.698852539062	-56.04837417602548	-13.69524288177491	1601.12841796875	99.17224884033193	-123.3641891479492	1522.639038085938	164.1138458251952	-120.8538284301758	1507.817749023438	-118.052345275879	-112.7745132446289	1420.8486328125	13.82421207427968	291.3587341308594	1039.384155273438	-74.05427551269533	294.9854736328125	1020.058227539062	146.3991546630859	
1653	13.76666666666667	48.9607810974121	1489.134155273438	129.1090240478515	-198.8648986816407	274.3097534179688	177.8412475585937	-220.2719421386719	1277.457397460938	24.27379035949696	-283.9244079589844	612.1661987304688	-67.97062683105476	-53.01699447631835	954.7081298828125	-129.4005889892579	-372.3086242675781	1516.88330078125	23.43998336791978	-48.94924163818362	1192.394409179688	225.2417602539062	177.1295928955078	1023.438171386719	169.8536529541015	-133.6196441650391	1580.15185546875	11.74444389343251	-396.6383361816406	1217.263061523438	-90.85128784179699	-130.9809875488281	485.5109252929688	-139.1107025146485	16.97945976257322	211.4363555908203	151.4834594726562	218.1411437988282	1046.693969726562	-160.2028350830078	-589.3085327148438	1201.825073242188	-45.88277816772475	-592.1449584960938	1207.760375976562	76.37065887451158	-417.8768615722656	1224.409057617188	175.0617523193358	-15.47693347930908	920.4542846679688	-23.77814483642584	-159.4087524414062	709.6260986328125	95.81149291992182	-210.2004547119141	742.4166870117188	198.5108947753905	-316.44287109375	616.1389770507812	-155.2405242919922	-175.4181823730469	293.5632019042969	91.33454132080074	-391.0032043457031	606.7108154296875	-109.8414154052735	-268.4419555664062	243.7556762695312	125.1700592041015	-28.33089065551756	1204.325439453125	-178.6000366210938	28.6934509277344	1244.974853515625	-202.1093902587891	6.461612224578825	1240.925048828125	262.1080627441406	209.0028839111328	1055.920776367188	224.0162048339843	179.5788879394531	1021.315856933594	-100.8502273559571	62.64918899536133	1438.853881835938	-21.06833457946786	-15.7467451095581	1565.6484375	-56.88485717773447	-13.39993858337404	1601.276000976562	98.32183837890615	-123.0431137084961	1522.80126953125	163.4172058105468	-120.8612442016601	1507.67333984375	-118.8660812377931	-112.5788650512695	1420.861450195312	13.33886051177968	291.3547973632812	1039.352783203125	-74.12165832519533	294.9071044921875	1020.099975585938	146.4110260009765	
1654	13.775	49.29478454589842	1489.425537109375	128.4660491943359	-208.9585266113282	270.0423583984375	177.5438842773437	-220.1509857177734	1277.469360351562	24.08434867858876	-275.3486633300781	617.0133666992188	-67.32896423339851	-49.47948074340819	962.9058837890625	-128.9700622558594	-372.1623840332031	1516.815307617188	22.99974441528306	-49.12171173095706	1192.459350585938	224.8717651367187	177.0419616699218	1023.495239257812	169.7667236328125	-133.4576873779297	1580.173461914062	11.01758193969715	-396.0852355957031	1217.9443359375	-89.93643951416027	-118.9728469848633	494.1557312011719	-138.0516204833985	5.779293060302716	203.0522003173828	151.5604248046875	218.0093841552735	1046.648315429688	-160.3070373535157	-588.6189575195312	1201.98291015625	-46.34716796875014	-591.8507690429688	1207.71728515625	75.9166107177733	-417.9769287109375	1224.20703125	175.5638122558592	-11.33206748962402	928.8561401367188	-23.18694305419928	-165.067138671875	704.9384155273438	95.91359710693354	-215.5935363769532	738.267822265625	198.6623229980468	-307.9108581542969	620.1202392578125	-155.1239166259766	-184.5345153808594	289.0990295410156	91.11090087890621	-382.2658386230469	609.03857421875	-109.8006591796876	-278.9476928710938	240.9539337158203	124.7258148193359	-28.67633438110349	1204.0048828125	-179.006317138672	28.30390930175784	1244.601806640625	-202.6666412353516	6.296772003173796	1240.969360351562	261.8556213378906	208.8217620849609	1055.945678710938	223.9901428222656	179.5454406738281	1021.361328125	-100.890251159668	62.82524108886719	1438.84423828125	-21.64128684997567	-15.69895458221435	1565.559448242188	-57.60157775878915	-13.16867542266847	1601.489379882812	97.56076812744131	-122.8013687133789	1522.957153320312	162.7236938476561	-120.9359970092773	1507.526123046875	-119.6437225341798	-112.4539108276367	1420.886962890625	12.91716384887685	291.36767578125	1039.309936523438	-74.19956207275392	294.8140258789062	1020.169189453125	146.3868560791015	
1655	13.78333333333333	49.5931053161621	1489.669677734375	127.7519912719726	-219.6468048095703	266.6834716796875	177.2538909912109	-220.0770111083984	1277.533935546875	24.01882553100575	-266.2952880859375	620.8785400390625	-66.99426269531257	-45.7923126220703	970.2017211914062	-129.0204162597657	-372.0381469726562	1516.775146484375	22.55670928955064	-49.31246566772464	1192.489868164062	224.544708251953	177.1161499023437	1023.854431152344	169.6284637451172	-133.3025970458984	1580.203002929688	10.36777019500721	-395.5223693847656	1218.286987304688	-89.28138732910168	-106.5657424926758	503.5693664550781	-138.1751556396485	-5.93337583541872	196.0225677490234	151.7052307128906	217.8770904541016	1046.619140625	-160.4407501220703	-588.0476684570312	1202.17724609375	-46.87973785400405	-591.6405639648438	1207.718505859375	75.43373870849595	-418.1540222167969	1224.051025390625	176.0393066406249	-7.849401473999021	937.3267822265625	-22.54546356201178	-169.94140625	700.9649047851562	96.0964736938476	-219.0613861083985	734.5231323242188	198.7306671142577	-298.7530822753906	623.263671875	-154.9656219482422	-194.5316925048828	285.4645690917969	90.89147949218746	-373.1402587890625	610.269287109375	-109.8169708251954	-289.8708801269531	238.8458404541016	124.1547470092773	-28.97553825378416	1203.716064453125	-179.3713989257813	27.93996620178225	1244.23828125	-203.1193389892579	6.092522621154753	1240.963012695312	261.5908508300781	208.6278686523437	1055.94873046875	223.9185791015625	179.5131988525391	1021.427917480469	-100.9348297119141	62.92495346069336	1438.866577148438	-22.30662918090828	-15.60663509368896	1565.55078125	-58.33261108398447	-12.88175773620607	1601.706909179688	96.75125122070303	-122.6277618408203	1523.101928710938	162.1457519531249	-120.9600982666015	1507.418090820312	-120.3889694213868	-112.3023681640625	1420.9765625	12.50269985198964	291.1527709960938	1039.31103515625	-73.8965530395508	294.7294921875	1020.224731445312	146.37353515625	
